<svg width="60" height="60" viewBox="0 0 60 60" fill="none" xmlns="http://www.w3.org/2000/svg">
<path d="M14.024 29H5.928V28.072C6.78133 27.7307 7.656 27.4747 8.552 27.304V8.328C7.54933 8.17867 6.67467 7.912 5.928 7.528V6.6H14.024V7.528C13.6613 7.72 13.2773 7.88 12.872 8.008C12.4667 8.136 12.0507 8.24267 11.624 8.328V16.68H21.672V8.328C21.224 8.22133 20.7973 8.104 20.392 7.976C20.008 7.848 19.6347 7.69867 19.272 7.528V6.6H27.368V7.528C26.984 7.74133 26.5573 7.912 26.088 8.04C25.64 8.14667 25.192 8.24267 24.744 8.328V27.304C25.2347 27.3893 25.704 27.496 26.152 27.624C26.6 27.752 27.0053 27.9013 27.368 28.072V29H19.272V28.072C20.04 27.7307 20.84 27.4747 21.672 27.304V18.344H11.624V27.304C12.0507 27.3893 12.4667 27.496 12.872 27.624C13.2773 27.752 13.6613 27.9013 14.024 28.072V29Z" fill="#F5F5F5"/>
<path d="M40.024 29H31.928V28.072C32.7813 27.7307 33.656 27.4747 34.552 27.304V8.328C33.5493 8.17867 32.6747 7.912 31.928 7.528V6.6H40.024V7.528C39.6613 7.72 39.2773 7.88 38.872 8.008C38.4667 8.136 38.0507 8.24267 37.624 8.328V16.68H47.672V8.328C47.224 8.22133 46.7973 8.104 46.392 7.976C46.008 7.848 45.6347 7.69867 45.272 7.528V6.6H53.368V7.528C52.984 7.74133 52.5573 7.912 52.088 8.04C51.64 8.14667 51.192 8.24267 50.744 8.328V27.304C51.2347 27.3893 51.704 27.496 52.152 27.624C52.6 27.752 53.0053 27.9013 53.368 28.072V29H45.272V28.072C46.04 27.7307 46.84 27.4747 47.672 27.304V18.344H37.624V27.304C38.0507 27.3893 38.4667 27.496 38.872 27.624C39.2773 27.752 39.6613 27.9013 40.024 28.072V29Z" fill="#F5F5F5"/>
<path d="M26.28 54H16.16V52.84C17.2267 52.4133 18.32 52.0933 19.44 51.88V28.16C18.1867 27.9733 17.0933 27.64 16.16 27.16V26H26.28V27.16C25.8267 27.4 25.3467 27.6 24.84 27.76C24.3333 27.92 23.8133 28.0533 23.28 28.16V38.6H35.84V28.16C35.28 28.0267 34.7467 27.88 34.24 27.72C33.76 27.56 33.2933 27.3733 32.84 27.16V26H42.96V27.16C42.48 27.4267 41.9467 27.64 41.36 27.8C40.8 27.9333 40.24 28.0533 39.68 28.16V51.88C40.2933 51.9867 40.88 52.12 41.44 52.28C42 52.44 42.5067 52.6267 42.96 52.84V54H32.84V52.84C33.8 52.4133 34.8 52.0933 35.84 51.88V40.68H23.28V51.88C23.8133 51.9867 24.3333 52.12 24.84 52.28C25.3467 52.44 25.8267 52.6267 26.28 52.84V54Z" fill="#0356CD"/>
</svg>
